<svg xmlns="http://www.w3.org/2000/svg" xmlns:xlink="http://www.w3.org/1999/xlink" width="400" zoomAndPan="magnify" viewBox="0 0 300 74.999997" height="100" preserveAspectRatio="xMidYMid meet" version="1.0"><defs><g/></defs><g fill="#000000" fill-opacity="1"><g transform="translate(34.511023, 65.30148)"><g><path d="M 13.1875 -10.984375 L 13.1875 0 L 12.078125 0 L 12.078125 -8.78125 L 7.765625 -1.390625 L 7.21875 -1.390625 L 2.90625 -8.734375 L 2.90625 0 L 1.78125 0 L 1.78125 -10.984375 L 2.75 -10.984375 L 7.515625 -2.84375 L 12.234375 -10.984375 Z M 13.1875 -10.984375 "/></g></g></g><g fill="#000000" fill-opacity="1"><g transform="translate(56.750873, 65.30148)"><g><path d="M 6.59375 0.09375 C 5.5 0.09375 4.507812 -0.144531 3.625 -0.625 C 2.75 -1.113281 2.0625 -1.78125 1.5625 -2.625 C 1.0625 -3.476562 0.8125 -4.429688 0.8125 -5.484375 C 0.8125 -6.546875 1.0625 -7.5 1.5625 -8.34375 C 2.0625 -9.1875 2.75 -9.851562 3.625 -10.34375 C 4.507812 -10.832031 5.5 -11.078125 6.59375 -11.078125 C 7.675781 -11.078125 8.65625 -10.832031 9.53125 -10.34375 C 10.40625 -9.863281 11.09375 -9.195312 11.59375 -8.34375 C 12.09375 -7.5 12.34375 -6.546875 12.34375 -5.484375 C 12.34375 -4.429688 12.09375 -3.476562 11.59375 -2.625 C 11.09375 -1.769531 10.40625 -1.101562 9.53125 -0.625 C 8.65625 -0.144531 7.675781 0.09375 6.59375 0.09375 Z M 6.59375 -0.9375 C 7.457031 -0.9375 8.238281 -1.132812 8.9375 -1.53125 C 9.644531 -1.925781 10.195312 -2.46875 10.59375 -3.15625 C 10.988281 -3.851562 11.1875 -4.628906 11.1875 -5.484375 C 11.1875 -6.347656 10.988281 -7.125 10.59375 -7.8125 C 10.195312 -8.507812 9.644531 -9.054688 8.9375 -9.453125 C 8.238281 -9.847656 7.457031 -10.046875 6.59375 -10.046875 C 5.71875 -10.046875 4.925781 -9.847656 4.21875 -9.453125 C 3.519531 -9.054688 2.96875 -8.507812 2.5625 -7.8125 C 2.15625 -7.125 1.953125 -6.347656 1.953125 -5.484375 C 1.953125 -4.628906 2.15625 -3.851562 2.5625 -3.15625 C 2.96875 -2.46875 3.519531 -1.925781 4.21875 -1.53125 C 4.925781 -1.132812 5.71875 -0.9375 6.59375 -0.9375 Z M 6.59375 -0.9375 "/></g></g></g><g fill="#000000" fill-opacity="1"><g transform="translate(77.171471, 65.30148)"><g><path d="M 1.78125 -10.984375 L 6.265625 -10.984375 C 7.421875 -10.984375 8.441406 -10.75 9.328125 -10.28125 C 10.222656 -9.8125 10.914062 -9.160156 11.40625 -8.328125 C 11.894531 -7.503906 12.140625 -6.554688 12.140625 -5.484375 C 12.140625 -4.421875 11.894531 -3.472656 11.40625 -2.640625 C 10.914062 -1.804688 10.222656 -1.15625 9.328125 -0.6875 C 8.441406 -0.226562 7.421875 0 6.265625 0 L 1.78125 0 Z M 6.203125 -1 C 7.160156 -1 8 -1.191406 8.71875 -1.578125 C 9.4375 -1.960938 9.992188 -2.488281 10.390625 -3.15625 C 10.796875 -3.832031 11 -4.609375 11 -5.484375 C 11 -6.367188 10.796875 -7.144531 10.390625 -7.8125 C 9.992188 -8.488281 9.4375 -9.019531 8.71875 -9.40625 C 8 -9.789062 7.160156 -9.984375 6.203125 -9.984375 L 2.953125 -9.984375 L 2.953125 -1 Z M 6.203125 -1 "/></g></g></g><g fill="#000000" fill-opacity="1"><g transform="translate(97.388186, 65.30148)"><g><path d="M 8.671875 -2.9375 L 2.5625 -2.9375 L 1.234375 0 L 0.03125 0 L 5.046875 -10.984375 L 6.203125 -10.984375 L 11.21875 0 L 10 0 Z M 8.25 -3.875 L 5.609375 -9.765625 L 2.984375 -3.875 Z M 8.25 -3.875 "/></g></g></g><g fill="#000000" fill-opacity="1"><g transform="translate(115.895442, 65.30148)"><g/></g></g><g fill="#000000" fill-opacity="1"><g transform="translate(127.26686, 65.30148)"><g><path d="M 2.953125 -9.984375 L 2.953125 -5.65625 L 8.625 -5.65625 L 8.625 -4.65625 L 2.953125 -4.65625 L 2.953125 0 L 1.78125 0 L 1.78125 -10.984375 L 9.3125 -10.984375 L 9.3125 -9.984375 Z M 2.953125 -9.984375 "/></g></g></g><g fill="#000000" fill-opacity="1"><g transform="translate(144.456726, 65.30148)"><g><path d="M 9.546875 -1 L 9.546875 0 L 1.78125 0 L 1.78125 -10.984375 L 9.3125 -10.984375 L 9.3125 -9.984375 L 2.953125 -9.984375 L 2.953125 -6.078125 L 8.625 -6.078125 L 8.625 -5.078125 L 2.953125 -5.078125 L 2.953125 -1 Z M 9.546875 -1 "/></g></g></g><g fill="#000000" fill-opacity="1"><g transform="translate(162.211194, 65.30148)"><g><path d="M 13.1875 -10.984375 L 13.1875 0 L 12.078125 0 L 12.078125 -8.78125 L 7.765625 -1.390625 L 7.21875 -1.390625 L 2.90625 -8.734375 L 2.90625 0 L 1.78125 0 L 1.78125 -10.984375 L 2.75 -10.984375 L 7.515625 -2.84375 L 12.234375 -10.984375 Z M 13.1875 -10.984375 "/></g></g></g><g fill="#000000" fill-opacity="1"><g transform="translate(184.451045, 65.30148)"><g><path d="M 9.546875 -1 L 9.546875 0 L 1.78125 0 L 1.78125 -10.984375 L 9.3125 -10.984375 L 9.3125 -9.984375 L 2.953125 -9.984375 L 2.953125 -6.078125 L 8.625 -6.078125 L 8.625 -5.078125 L 2.953125 -5.078125 L 2.953125 -1 Z M 9.546875 -1 "/></g></g></g><g fill="#000000" fill-opacity="1"><g transform="translate(202.205512, 65.30148)"><g><path d="M 10.96875 -10.984375 L 10.96875 0 L 10.015625 0 L 2.953125 -8.90625 L 2.953125 0 L 1.78125 0 L 1.78125 -10.984375 L 2.75 -10.984375 L 9.828125 -2.078125 L 9.828125 -10.984375 Z M 10.96875 -10.984375 "/></g></g></g><g fill="#000000" fill-opacity="1"><g transform="translate(222.218348, 65.30148)"><g><path d="M 1.78125 -10.984375 L 2.953125 -10.984375 L 2.953125 0 L 1.78125 0 Z M 1.78125 -10.984375 "/></g></g></g><g fill="#000000" fill-opacity="1"><g transform="translate(234.217076, 65.30148)"><g><path d="M 10.96875 -10.984375 L 10.96875 0 L 10.015625 0 L 2.953125 -8.90625 L 2.953125 0 L 1.78125 0 L 1.78125 -10.984375 L 2.75 -10.984375 L 9.828125 -2.078125 L 9.828125 -10.984375 Z M 10.96875 -10.984375 "/></g></g></g><g fill="#000000" fill-opacity="1"><g transform="translate(254.229899, 65.30148)"><g><path d="M 8.671875 -2.9375 L 2.5625 -2.9375 L 1.234375 0 L 0.03125 0 L 5.046875 -10.984375 L 6.203125 -10.984375 L 11.21875 0 L 10 0 Z M 8.25 -3.875 L 5.609375 -9.765625 L 2.984375 -3.875 Z M 8.25 -3.875 "/></g></g></g><g fill="#000000" fill-opacity="1"><g transform="translate(1.446263, 36.308316)"><g><path d="M 21.875 -25.609375 C 22.988281 -25.609375 23.90625 -25.644531 24.625 -25.71875 L 24.625 -25 C 24.019531 -24.78125 23.425781 -24.316406 22.84375 -23.609375 C 22.269531 -22.910156 21.75 -21.929688 21.28125 -20.671875 L 13.625 0.078125 C 13.351562 0.046875 12.925781 0.03125 12.34375 0.03125 C 11.789062 0.03125 11.378906 0.046875 11.109375 0.078125 L 1.859375 -22.671875 C 1.535156 -23.472656 1.164062 -24.050781 0.75 -24.40625 C 0.34375 -24.769531 -0.0507812 -24.96875 -0.4375 -25 L -0.4375 -25.71875 C 1.019531 -25.644531 2.859375 -25.609375 5.078125 -25.609375 C 7.578125 -25.609375 9.421875 -25.644531 10.609375 -25.71875 L 10.609375 -25 C 9.691406 -24.945312 9.035156 -24.832031 8.640625 -24.65625 C 8.253906 -24.488281 8.0625 -24.15625 8.0625 -23.65625 C 8.0625 -23.238281 8.207031 -22.664062 8.5 -21.9375 L 14.890625 -5.671875 L 19.359375 -17.734375 C 20.035156 -19.597656 20.375 -21.070312 20.375 -22.15625 C 20.375 -23.125 20.113281 -23.828125 19.59375 -24.265625 C 19.070312 -24.703125 18.316406 -24.945312 17.328125 -25 L 17.328125 -25.71875 C 18.972656 -25.644531 20.488281 -25.609375 21.875 -25.609375 Z M 21.875 -25.609375 "/></g></g></g><g fill="#000000" fill-opacity="1"><g transform="translate(25.712141, 36.308316)"><g><path d="M 21.140625 -5.515625 C 21.140625 -3.285156 21.222656 -1.445312 21.390625 0 C 19.742188 -0.0703125 16.972656 -0.109375 13.078125 -0.109375 C 7.796875 -0.109375 3.847656 -0.0703125 1.234375 0 L 1.234375 -0.71875 C 2.035156 -0.769531 2.625 -0.867188 3 -1.015625 C 3.375 -1.160156 3.625 -1.4375 3.75 -1.84375 C 3.882812 -2.257812 3.953125 -2.925781 3.953125 -3.84375 L 3.953125 -21.875 C 3.953125 -22.789062 3.882812 -23.453125 3.75 -23.859375 C 3.625 -24.273438 3.375 -24.554688 3 -24.703125 C 2.625 -24.847656 2.035156 -24.945312 1.234375 -25 L 1.234375 -25.71875 C 3.847656 -25.644531 7.796875 -25.609375 13.078125 -25.609375 C 16.640625 -25.609375 19.171875 -25.644531 20.671875 -25.71875 C 20.503906 -23.707031 20.421875 -21.914062 20.421875 -20.34375 C 20.421875 -19.28125 20.457031 -18.457031 20.53125 -17.875 L 19.6875 -17.875 C 19.320312 -20.46875 18.664062 -22.285156 17.71875 -23.328125 C 16.78125 -24.367188 15.453125 -24.890625 13.734375 -24.890625 L 12.25 -24.890625 C 11.488281 -24.890625 10.9375 -24.828125 10.59375 -24.703125 C 10.257812 -24.578125 10.03125 -24.335938 9.90625 -23.984375 C 9.789062 -23.640625 9.734375 -23.082031 9.734375 -22.3125 L 9.734375 -13.296875 L 10.890625 -13.296875 C 12.179688 -13.296875 13.160156 -13.765625 13.828125 -14.703125 C 14.492188 -15.648438 14.957031 -16.78125 15.21875 -18.09375 L 16.0625 -18.09375 C 15.988281 -17.070312 15.953125 -15.929688 15.953125 -14.671875 L 15.953125 -12.9375 C 15.953125 -11.695312 16.023438 -9.976562 16.171875 -7.78125 L 15.328125 -7.78125 C 14.816406 -10.96875 13.335938 -12.5625 10.890625 -12.5625 L 9.734375 -12.5625 L 9.734375 -3.421875 C 9.734375 -2.640625 9.789062 -2.070312 9.90625 -1.71875 C 10.03125 -1.375 10.257812 -1.140625 10.59375 -1.015625 C 10.9375 -0.890625 11.488281 -0.828125 12.25 -0.828125 L 14.015625 -0.828125 C 15.742188 -0.828125 17.132812 -1.414062 18.1875 -2.59375 C 19.238281 -3.769531 19.984375 -5.765625 20.421875 -8.578125 L 21.25 -8.578125 C 21.175781 -7.773438 21.140625 -6.753906 21.140625 -5.515625 Z M 21.140625 -5.515625 "/></g></g></g><g fill="#000000" fill-opacity="1"><g transform="translate(48.742935, 36.308316)"><g><path d="M 25.859375 -1.59375 C 25.210938 -0.84375 24.507812 -0.304688 23.75 0.015625 C 23 0.347656 22.09375 0.515625 21.03125 0.515625 C 19.625 0.515625 18.515625 0.21875 17.703125 -0.375 C 16.898438 -0.96875 16.375 -1.984375 16.125 -3.421875 L 15.46875 -7.046875 C 15.15625 -8.816406 14.773438 -10.117188 14.328125 -10.953125 C 13.878906 -11.785156 13.132812 -12.203125 12.09375 -12.203125 L 9.734375 -12.203125 L 9.734375 -3.84375 C 9.734375 -2.925781 9.800781 -2.257812 9.9375 -1.84375 C 10.070312 -1.4375 10.316406 -1.160156 10.671875 -1.015625 C 11.035156 -0.867188 11.628906 -0.769531 12.453125 -0.71875 L 12.453125 0 C 11.148438 -0.0703125 9.320312 -0.109375 6.96875 -0.109375 C 4.382812 -0.109375 2.472656 -0.0703125 1.234375 0 L 1.234375 -0.71875 C 2.035156 -0.769531 2.625 -0.867188 3 -1.015625 C 3.375 -1.160156 3.625 -1.4375 3.75 -1.84375 C 3.882812 -2.257812 3.953125 -2.925781 3.953125 -3.84375 L 3.953125 -21.875 C 3.953125 -22.789062 3.882812 -23.453125 3.75 -23.859375 C 3.625 -24.273438 3.375 -24.554688 3 -24.703125 C 2.625 -24.847656 2.035156 -24.945312 1.234375 -25 L 1.234375 -25.71875 C 2.472656 -25.644531 4.3125 -25.609375 6.75 -25.609375 L 10.796875 -25.640625 C 11.273438 -25.671875 11.828125 -25.6875 12.453125 -25.6875 C 15.796875 -25.6875 18.304688 -25.140625 19.984375 -24.046875 C 21.671875 -22.960938 22.515625 -21.398438 22.515625 -19.359375 C 22.515625 -17.640625 21.882812 -16.125 20.625 -14.8125 C 19.375 -13.507812 17.296875 -12.6875 14.390625 -12.34375 C 16.566406 -12.15625 18.1875 -11.6875 19.25 -10.9375 C 20.320312 -10.1875 21.015625 -9.0625 21.328125 -7.5625 L 22.15625 -3.8125 C 22.351562 -2.84375 22.578125 -2.164062 22.828125 -1.78125 C 23.085938 -1.394531 23.445312 -1.203125 23.90625 -1.203125 C 24.195312 -1.222656 24.441406 -1.289062 24.640625 -1.40625 C 24.847656 -1.53125 25.085938 -1.738281 25.359375 -2.03125 Z M 11.984375 -25 C 11.328125 -25 10.847656 -24.910156 10.546875 -24.734375 C 10.242188 -24.566406 10.03125 -24.265625 9.90625 -23.828125 C 9.789062 -23.390625 9.734375 -22.738281 9.734375 -21.875 L 9.734375 -12.9375 L 11.296875 -12.9375 C 13.285156 -12.9375 14.648438 -13.460938 15.390625 -14.515625 C 16.128906 -15.566406 16.5 -17.050781 16.5 -18.96875 C 16.5 -20.945312 16.144531 -22.445312 15.4375 -23.46875 C 14.738281 -24.488281 13.585938 -25 11.984375 -25 Z M 11.984375 -25 "/></g></g></g><g fill="#000000" fill-opacity="1"><g transform="translate(73.880648, 36.308316)"><g><path d="M 14.421875 -26.234375 C 16.984375 -26.234375 19.226562 -25.710938 21.15625 -24.671875 C 23.082031 -23.628906 24.578125 -22.117188 25.640625 -20.140625 C 26.710938 -18.171875 27.25 -15.816406 27.25 -13.078125 C 27.25 -10.410156 26.703125 -8.046875 25.609375 -5.984375 C 24.515625 -3.929688 22.992188 -2.332031 21.046875 -1.1875 C 19.097656 -0.0507812 16.878906 0.515625 14.390625 0.515625 C 11.816406 0.515625 9.566406 -0.00390625 7.640625 -1.046875 C 5.722656 -2.085938 4.226562 -3.59375 3.15625 -5.5625 C 2.09375 -7.539062 1.5625 -9.898438 1.5625 -12.640625 C 1.5625 -15.304688 2.101562 -17.664062 3.1875 -19.71875 C 4.28125 -21.78125 5.800781 -23.378906 7.75 -24.515625 C 9.707031 -25.660156 11.929688 -26.234375 14.421875 -26.234375 Z M 14.28125 -25.578125 C 12.945312 -25.578125 11.769531 -25.035156 10.75 -23.953125 C 9.738281 -22.878906 8.957031 -21.375 8.40625 -19.4375 C 7.863281 -17.5 7.59375 -15.28125 7.59375 -12.78125 C 7.59375 -10.269531 7.898438 -8.054688 8.515625 -6.140625 C 9.128906 -4.222656 9.960938 -2.742188 11.015625 -1.703125 C 12.078125 -0.660156 13.25 -0.140625 14.53125 -0.140625 C 15.863281 -0.140625 17.035156 -0.675781 18.046875 -1.75 C 19.066406 -2.832031 19.847656 -4.34375 20.390625 -6.28125 C 20.941406 -8.21875 21.21875 -10.4375 21.21875 -12.9375 C 21.21875 -15.445312 20.90625 -17.660156 20.28125 -19.578125 C 19.664062 -21.492188 18.832031 -22.972656 17.78125 -24.015625 C 16.726562 -25.054688 15.5625 -25.578125 14.28125 -25.578125 Z M 14.28125 -25.578125 "/></g></g></g><g fill="#000000" fill-opacity="1"><g transform="translate(102.687299, 36.308316)"><g><path d="M 25.171875 -25 C 24.367188 -24.875 23.78125 -24.664062 23.40625 -24.375 C 23.03125 -24.082031 22.773438 -23.617188 22.640625 -22.984375 C 22.515625 -22.359375 22.453125 -21.429688 22.453125 -20.203125 L 22.453125 0.078125 L 21.578125 0.03125 L 20.59375 0.078125 L 4.828125 -19.90625 L 4.828125 -5.953125 C 4.828125 -4.523438 4.898438 -3.476562 5.046875 -2.8125 C 5.191406 -2.144531 5.503906 -1.660156 5.984375 -1.359375 C 6.472656 -1.054688 7.265625 -0.84375 8.359375 -0.71875 L 8.359375 0 C 7.410156 -0.0703125 6.101562 -0.109375 4.4375 -0.109375 C 3.101562 -0.109375 2.046875 -0.0703125 1.265625 0 L 1.265625 -0.71875 C 2.066406 -0.84375 2.65625 -1.050781 3.03125 -1.34375 C 3.40625 -1.632812 3.660156 -2.09375 3.796875 -2.71875 C 3.929688 -3.351562 4 -4.285156 4 -5.515625 L 4 -21.875 C 4 -22.789062 3.929688 -23.453125 3.796875 -23.859375 C 3.660156 -24.273438 3.40625 -24.554688 3.03125 -24.703125 C 2.65625 -24.847656 2.066406 -24.945312 1.265625 -25 L 1.265625 -25.71875 C 2.046875 -25.644531 3.101562 -25.609375 4.4375 -25.609375 C 5.644531 -25.609375 6.6875 -25.644531 7.5625 -25.71875 L 21.609375 -8.390625 L 21.609375 -19.765625 C 21.609375 -21.191406 21.535156 -22.238281 21.390625 -22.90625 C 21.242188 -23.570312 20.925781 -24.054688 20.4375 -24.359375 C 19.957031 -24.660156 19.175781 -24.875 18.09375 -25 L 18.09375 -25.71875 C 19.039062 -25.644531 20.347656 -25.609375 22.015625 -25.609375 C 23.367188 -25.609375 24.421875 -25.644531 25.171875 -25.71875 Z M 25.171875 -25 "/></g></g></g><g fill="#000000" fill-opacity="1"><g transform="translate(128.914784, 36.308316)"><g><path d="M 12.453125 -25 C 11.628906 -24.945312 11.035156 -24.847656 10.671875 -24.703125 C 10.316406 -24.554688 10.070312 -24.273438 9.9375 -23.859375 C 9.800781 -23.453125 9.734375 -22.789062 9.734375 -21.875 L 9.734375 -3.84375 C 9.734375 -2.925781 9.800781 -2.257812 9.9375 -1.84375 C 10.070312 -1.4375 10.316406 -1.160156 10.671875 -1.015625 C 11.035156 -0.867188 11.628906 -0.769531 12.453125 -0.71875 L 12.453125 0 C 11.148438 -0.0703125 9.320312 -0.109375 6.96875 -0.109375 C 4.382812 -0.109375 2.472656 -0.0703125 1.234375 0 L 1.234375 -0.71875 C 2.035156 -0.769531 2.625 -0.867188 3 -1.015625 C 3.375 -1.160156 3.625 -1.4375 3.75 -1.84375 C 3.882812 -2.257812 3.953125 -2.925781 3.953125 -3.84375 L 3.953125 -21.875 C 3.953125 -22.789062 3.882812 -23.453125 3.75 -23.859375 C 3.625 -24.273438 3.375 -24.554688 3 -24.703125 C 2.625 -24.847656 2.035156 -24.945312 1.234375 -25 L 1.234375 -25.71875 C 2.472656 -25.644531 4.382812 -25.609375 6.96875 -25.609375 C 9.320312 -25.609375 11.148438 -25.644531 12.453125 -25.71875 Z M 12.453125 -25 "/></g></g></g><g fill="#000000" fill-opacity="1"><g transform="translate(142.573421, 36.308316)"><g><path d="M 14.421875 -26.234375 C 15.878906 -26.234375 17.113281 -26.023438 18.125 -25.609375 C 19.144531 -25.203125 20.140625 -24.625 21.109375 -23.875 C 21.367188 -23.65625 21.597656 -23.546875 21.796875 -23.546875 C 22.273438 -23.546875 22.585938 -24.269531 22.734375 -25.71875 L 23.578125 -25.71875 C 23.484375 -24.070312 23.4375 -21.140625 23.4375 -16.921875 L 22.59375 -16.921875 C 22.375 -18.710938 22.082031 -20.082031 21.71875 -21.03125 C 21.351562 -21.976562 20.738281 -22.800781 19.875 -23.5 C 19.269531 -24.082031 18.566406 -24.523438 17.765625 -24.828125 C 16.960938 -25.128906 16.125 -25.28125 15.25 -25.28125 C 12.8125 -25.28125 11 -24.085938 9.8125 -21.703125 C 8.625 -19.316406 8.03125 -16.34375 8.03125 -12.78125 C 8.03125 -9.25 8.644531 -6.296875 9.875 -3.921875 C 11.113281 -1.546875 12.957031 -0.359375 15.40625 -0.359375 C 16.226562 -0.359375 17.046875 -0.507812 17.859375 -0.8125 C 18.671875 -1.113281 19.351562 -1.554688 19.90625 -2.140625 C 20.800781 -2.816406 21.425781 -3.664062 21.78125 -4.6875 C 22.132812 -5.707031 22.40625 -7.195312 22.59375 -9.15625 L 23.4375 -9.15625 C 23.4375 -4.769531 23.484375 -1.71875 23.578125 0 L 22.734375 0 C 22.660156 -0.769531 22.554688 -1.316406 22.421875 -1.640625 C 22.296875 -1.972656 22.113281 -2.140625 21.875 -2.140625 C 21.675781 -2.140625 21.421875 -2.046875 21.109375 -1.859375 C 20.015625 -1.078125 18.972656 -0.484375 17.984375 -0.078125 C 16.992188 0.316406 15.796875 0.515625 14.390625 0.515625 C 11.816406 0.515625 9.566406 -0.00390625 7.640625 -1.046875 C 5.722656 -2.085938 4.226562 -3.59375 3.15625 -5.5625 C 2.09375 -7.539062 1.5625 -9.898438 1.5625 -12.640625 C 1.5625 -15.304688 2.101562 -17.664062 3.1875 -19.71875 C 4.28125 -21.78125 5.800781 -23.378906 7.75 -24.515625 C 9.707031 -25.660156 11.929688 -26.234375 14.421875 -26.234375 Z M 14.421875 -26.234375 "/></g></g></g><g fill="#000000" fill-opacity="1"><g transform="translate(168.183364, 36.308316)"><g><path d="M 22.203125 -3.046875 C 22.515625 -2.253906 22.875 -1.675781 23.28125 -1.3125 C 23.695312 -0.945312 24.097656 -0.75 24.484375 -0.71875 L 24.484375 0 C 23.035156 -0.0703125 21.195312 -0.109375 18.96875 -0.109375 C 16.488281 -0.109375 14.644531 -0.0703125 13.4375 0 L 13.4375 -0.71875 C 14.363281 -0.769531 15.019531 -0.882812 15.40625 -1.0625 C 15.789062 -1.25 15.984375 -1.570312 15.984375 -2.03125 C 15.984375 -2.46875 15.835938 -3.050781 15.546875 -3.78125 L 13.375 -9.734375 L 5.453125 -9.734375 L 4.5 -7.234375 C 3.820312 -5.484375 3.484375 -4.140625 3.484375 -3.203125 C 3.484375 -2.304688 3.753906 -1.679688 4.296875 -1.328125 C 4.847656 -0.972656 5.65625 -0.769531 6.71875 -0.71875 L 6.71875 0 C 5.070312 -0.0703125 3.570312 -0.109375 2.21875 -0.109375 C 1.101562 -0.109375 0.179688 -0.0703125 -0.546875 0 L -0.546875 -0.71875 C 0.640625 -0.9375 1.679688 -2.210938 2.578125 -4.546875 L 10.859375 -25.796875 C 11.128906 -25.765625 11.554688 -25.75 12.140625 -25.75 C 12.710938 -25.75 13.125 -25.765625 13.375 -25.796875 Z M 13.109375 -10.46875 L 9.515625 -20.265625 L 5.734375 -10.46875 Z M 13.109375 -10.46875 "/></g></g></g><g fill="#000000" fill-opacity="1"><g transform="translate(192.412922, 36.308316)"><g/></g></g><g fill="#000000" fill-opacity="1"><g transform="translate(200.876923, 36.308316)"><g><path d="M 12.671875 -25 C 11.804688 -24.945312 11.171875 -24.847656 10.765625 -24.703125 C 10.367188 -24.554688 10.097656 -24.273438 9.953125 -23.859375 C 9.804688 -23.453125 9.734375 -22.789062 9.734375 -21.875 L 9.734375 -3.421875 C 9.734375 -2.640625 9.789062 -2.070312 9.90625 -1.71875 C 10.03125 -1.375 10.242188 -1.140625 10.546875 -1.015625 C 10.847656 -0.890625 11.34375 -0.828125 12.03125 -0.828125 L 13.796875 -0.828125 C 15.453125 -0.828125 16.878906 -1.566406 18.078125 -3.046875 C 19.273438 -4.523438 20.054688 -6.488281 20.421875 -8.9375 L 21.25 -8.9375 C 21.175781 -8.113281 21.140625 -7.046875 21.140625 -5.734375 C 21.140625 -3.410156 21.222656 -1.5 21.390625 0 C 19.742188 -0.0703125 16.972656 -0.109375 13.078125 -0.109375 C 7.796875 -0.109375 3.847656 -0.0703125 1.234375 0 L 1.234375 -0.71875 C 2.035156 -0.769531 2.625 -0.867188 3 -1.015625 C 3.375 -1.160156 3.625 -1.4375 3.75 -1.84375 C 3.882812 -2.257812 3.953125 -2.925781 3.953125 -3.84375 L 3.953125 -21.875 C 3.953125 -22.789062 3.882812 -23.453125 3.75 -23.859375 C 3.625 -24.273438 3.375 -24.554688 3 -24.703125 C 2.625 -24.847656 2.035156 -24.945312 1.234375 -25 L 1.234375 -25.71875 C 2.472656 -25.644531 4.382812 -25.609375 6.96875 -25.609375 C 9.445312 -25.609375 11.347656 -25.644531 12.671875 -25.71875 Z M 12.671875 -25 "/></g></g></g><g fill="#000000" fill-opacity="1"><g transform="translate(223.072218, 36.308316)"><g><path d="M 24.375 -25 C 23.570312 -24.875 22.984375 -24.664062 22.609375 -24.375 C 22.234375 -24.082031 21.976562 -23.617188 21.84375 -22.984375 C 21.71875 -22.359375 21.65625 -21.429688 21.65625 -20.203125 L 21.65625 -10.578125 C 21.65625 -7.109375 21.15625 -4.539062 20.15625 -2.875 C 19.507812 -1.800781 18.566406 -0.96875 17.328125 -0.375 C 16.085938 0.21875 14.570312 0.515625 12.78125 0.515625 C 9.976562 0.515625 7.800781 -0.09375 6.25 -1.3125 C 5.132812 -2.207031 4.382812 -3.335938 4 -4.703125 C 3.613281 -6.066406 3.421875 -7.988281 3.421875 -10.46875 L 3.421875 -21.875 C 3.421875 -22.789062 3.351562 -23.453125 3.21875 -23.859375 C 3.082031 -24.273438 2.828125 -24.554688 2.453125 -24.703125 C 2.078125 -24.847656 1.488281 -24.945312 0.6875 -25 L 0.6875 -25.71875 C 1.925781 -25.644531 3.816406 -25.609375 6.359375 -25.609375 C 8.878906 -25.609375 10.804688 -25.644531 12.140625 -25.71875 L 12.140625 -25 C 11.265625 -24.945312 10.625 -24.847656 10.21875 -24.703125 C 9.820312 -24.554688 9.550781 -24.273438 9.40625 -23.859375 C 9.257812 -23.453125 9.1875 -22.789062 9.1875 -21.875 L 9.1875 -8.171875 C 9.1875 -5.628906 9.554688 -3.757812 10.296875 -2.5625 C 11.035156 -1.363281 12.335938 -0.765625 14.203125 -0.765625 C 16.628906 -0.765625 18.335938 -1.582031 19.328125 -3.21875 C 20.316406 -4.851562 20.8125 -7.171875 20.8125 -10.171875 L 20.8125 -19.765625 C 20.8125 -21.171875 20.726562 -22.210938 20.5625 -22.890625 C 20.394531 -23.566406 20.066406 -24.054688 19.578125 -24.359375 C 19.097656 -24.660156 18.335938 -24.875 17.296875 -25 L 17.296875 -25.71875 C 18.210938 -25.644531 19.519531 -25.609375 21.21875 -25.609375 C 22.570312 -25.609375 23.625 -25.644531 24.375 -25.71875 Z M 24.375 -25 "/></g></g></g><g fill="#000000" fill-opacity="1"><g transform="translate(248.100953, 36.308316)"><g><path d="M 25.171875 -25 C 24.367188 -24.875 23.78125 -24.664062 23.40625 -24.375 C 23.03125 -24.082031 22.773438 -23.617188 22.640625 -22.984375 C 22.515625 -22.359375 22.453125 -21.429688 22.453125 -20.203125 L 22.453125 0.078125 L 21.578125 0.03125 L 20.59375 0.078125 L 4.828125 -19.90625 L 4.828125 -5.953125 C 4.828125 -4.523438 4.898438 -3.476562 5.046875 -2.8125 C 5.191406 -2.144531 5.503906 -1.660156 5.984375 -1.359375 C 6.472656 -1.054688 7.265625 -0.84375 8.359375 -0.71875 L 8.359375 0 C 7.410156 -0.0703125 6.101562 -0.109375 4.4375 -0.109375 C 3.101562 -0.109375 2.046875 -0.0703125 1.265625 0 L 1.265625 -0.71875 C 2.066406 -0.84375 2.65625 -1.050781 3.03125 -1.34375 C 3.40625 -1.632812 3.660156 -2.09375 3.796875 -2.71875 C 3.929688 -3.351562 4 -4.285156 4 -5.515625 L 4 -21.875 C 4 -22.789062 3.929688 -23.453125 3.796875 -23.859375 C 3.660156 -24.273438 3.40625 -24.554688 3.03125 -24.703125 C 2.65625 -24.847656 2.066406 -24.945312 1.265625 -25 L 1.265625 -25.71875 C 2.046875 -25.644531 3.101562 -25.609375 4.4375 -25.609375 C 5.644531 -25.609375 6.6875 -25.644531 7.5625 -25.71875 L 21.609375 -8.390625 L 21.609375 -19.765625 C 21.609375 -21.191406 21.535156 -22.238281 21.390625 -22.90625 C 21.242188 -23.570312 20.925781 -24.054688 20.4375 -24.359375 C 19.957031 -24.660156 19.175781 -24.875 18.09375 -25 L 18.09375 -25.71875 C 19.039062 -25.644531 20.347656 -25.609375 22.015625 -25.609375 C 23.367188 -25.609375 24.421875 -25.644531 25.171875 -25.71875 Z M 25.171875 -25 "/></g></g></g><g fill="#000000" fill-opacity="1"><g transform="translate(274.328439, 36.308316)"><g><path d="M 22.203125 -3.046875 C 22.515625 -2.253906 22.875 -1.675781 23.28125 -1.3125 C 23.695312 -0.945312 24.097656 -0.75 24.484375 -0.71875 L 24.484375 0 C 23.035156 -0.0703125 21.195312 -0.109375 18.96875 -0.109375 C 16.488281 -0.109375 14.644531 -0.0703125 13.4375 0 L 13.4375 -0.71875 C 14.363281 -0.769531 15.019531 -0.882812 15.40625 -1.0625 C 15.789062 -1.25 15.984375 -1.570312 15.984375 -2.03125 C 15.984375 -2.46875 15.835938 -3.050781 15.546875 -3.78125 L 13.375 -9.734375 L 5.453125 -9.734375 L 4.5 -7.234375 C 3.820312 -5.484375 3.484375 -4.140625 3.484375 -3.203125 C 3.484375 -2.304688 3.753906 -1.679688 4.296875 -1.328125 C 4.847656 -0.972656 5.65625 -0.769531 6.71875 -0.71875 L 6.71875 0 C 5.070312 -0.0703125 3.570312 -0.109375 2.21875 -0.109375 C 1.101562 -0.109375 0.179688 -0.0703125 -0.546875 0 L -0.546875 -0.71875 C 0.640625 -0.9375 1.679688 -2.210938 2.578125 -4.546875 L 10.859375 -25.796875 C 11.128906 -25.765625 11.554688 -25.75 12.140625 -25.75 C 12.710938 -25.75 13.125 -25.765625 13.375 -25.796875 Z M 13.109375 -10.46875 L 9.515625 -20.265625 L 5.734375 -10.46875 Z M 13.109375 -10.46875 "/></g></g></g></svg>