<?xml version="1.0" ?><svg id="Layer_1" style="enable-background:new 0 0 48 48;" version="1.1" viewBox="0 0 48 48" xml:space="preserve" xmlns="http://www.w3.org/2000/svg" xmlns:xlink="http://www.w3.org/1999/xlink"><path d="M41.7,40.3l-9.4-9.4c0.4-0.5,0.8-1,1.1-1.5C35.1,26.9,36,24,36,21c0-8.3-6.7-15-15-15S6,12.7,6,21c0,8.3,6.7,15,15,15  c3.7,0,7.2-1.3,9.9-3.7l9.4,9.4c0.2,0.2,0.5,0.3,0.7,0.3s0.5-0.1,0.7-0.3C42.1,41.3,42.1,40.7,41.7,40.3z M21,34  c-7.2,0-13-5.8-13-13c0-7.2,5.8-13,13-13c7.2,0,13,5.8,13,13c0,2.6-0.8,5.1-2.2,7.3C29.4,31.9,25.3,34,21,34z"/></svg>